<svg xmlns="http://www.w3.org/2000/svg" viewBox="0 0 70 70">
<path d="M18.1 23.8H9.5c-2.4 0-4.4-2-4.4-4.4v-8.6c0-2.4 2-4.4 4.4-4.4h8.6c2.4 0 4.4 2 4.4 4.4v8.6c0 2.4-2 4.4-4.4 4.4zM9.5 8.4a2.4 2.4 0 0 0-2.4 2.4v8.6c0 1.3 1.1 2.4 2.4 2.4h8.6c1.3 0 2.4-1.1 2.4-2.4v-8.6c0-1.3-1.1-2.4-2.4-2.4H9.5zM60.5 23.8h-8.6c-2.4 0-4.4-2-4.4-4.4v-8.6c0-2.4 2-4.4 4.4-4.4h8.6c2.4 0 4.4 2 4.4 4.4v8.6c0 2.4-2 4.4-4.4 4.4zM51.9 8.4a2.4 2.4 0 0 0-2.4 2.4v8.6c0 1.3 1.1 2.4 2.4 2.4h8.6c1.3 0 2.4-1.1 2.4-2.4v-8.6c0-1.3-1.1-2.4-2.4-2.4h-8.6zM39.4 23.8h-8.6c-2.4 0-4.4-2-4.4-4.4v-8.6c0-2.4 2-4.4 4.4-4.4h8.6c2.4 0 4.4 2 4.4 4.4v8.6c0 2.4-2 4.4-4.4 4.4zM30.8 8.4a2.4 2.4 0 0 0-2.4 2.4v8.6c0 1.3 1.1 2.4 2.4 2.4h8.6c1.3 0 2.4-1.1 2.4-2.4v-8.6c0-1.3-1.1-2.4-2.4-2.4h-8.6zM18.1 43.7H9.5c-2.4 0-4.4-2-4.4-4.4v-8.6c0-2.4 2-4.4 4.4-4.4h8.6c2.4 0 4.4 2 4.4 4.4v8.6c0 2.4-2 4.4-4.4 4.4zM9.5 28.3a2.4 2.4 0 0 0-2.4 2.4v8.6c0 1.3 1.1 2.4 2.4 2.4h8.6c1.3 0 2.4-1.1 2.4-2.4v-8.6c0-1.3-1.1-2.4-2.4-2.4H9.5zM60.5 43.7h-8.6c-2.4 0-4.4-2-4.4-4.4v-8.6c0-2.4 2-4.4 4.4-4.4h8.6c2.4 0 4.4 2 4.4 4.4v8.6c0 2.4-2 4.4-4.4 4.4zm-8.6-15.4a2.4 2.4 0 0 0-2.4 2.4v8.6c0 1.3 1.1 2.4 2.4 2.4h8.6c1.3 0 2.4-1.1 2.4-2.4v-8.6c0-1.3-1.1-2.4-2.4-2.4h-8.6zM39.4 43.7h-8.6c-2.4 0-4.4-2-4.4-4.4v-8.6c0-2.4 2-4.4 4.4-4.4h8.6c2.4 0 4.4 2 4.4 4.4v8.6c0 2.4-2 4.4-4.4 4.4zm-8.6-15.4a2.4 2.4 0 0 0-2.4 2.4v8.6c0 1.3 1.1 2.4 2.4 2.4h8.6c1.3 0 2.4-1.1 2.4-2.4v-8.6c0-1.3-1.1-2.4-2.4-2.4h-8.6zM18.1 63.6H9.5c-2.4 0-4.4-2-4.4-4.4v-8.6c0-2.4 2-4.4 4.4-4.4h8.6c2.4 0 4.4 2 4.4 4.4v8.6c0 2.4-2 4.4-4.4 4.4zM9.5 48.2a2.4 2.4 0 0 0-2.4 2.4v8.6c0 1.3 1.1 2.4 2.4 2.4h8.6c1.3 0 2.4-1.1 2.4-2.4v-8.6c0-1.3-1.1-2.4-2.4-2.4H9.5zM60.5 63.6h-8.6c-2.4 0-4.4-2-4.4-4.4v-8.6c0-2.4 2-4.4 4.4-4.4h8.6c2.4 0 4.4 2 4.4 4.4v8.6c0 2.4-2 4.4-4.4 4.4zm-8.6-15.4a2.4 2.4 0 0 0-2.4 2.4v8.6c0 1.3 1.1 2.4 2.4 2.4h8.6c1.3 0 2.4-1.1 2.4-2.4v-8.6c0-1.3-1.1-2.4-2.4-2.4h-8.6zM39.4 63.6h-8.6c-2.4 0-4.4-2-4.4-4.4v-8.6c0-2.4 2-4.4 4.4-4.4h8.6c2.4 0 4.4 2 4.4 4.4v8.6c0 2.4-2 4.4-4.4 4.4zm-8.6-15.4a2.4 2.4 0 0 0-2.4 2.4v8.6c0 1.3 1.1 2.4 2.4 2.4h8.6c1.3 0 2.4-1.1 2.4-2.4v-8.6c0-1.3-1.1-2.4-2.4-2.4h-8.6z"/>
</svg>