<svg xmlns="http://www.w3.org/2000/svg" viewBox="0 0 70 70">
<path d="M64.7 19.5a4.8 4.8 0 0 0-3.9-1.6H38.1c-1.4 0-4.6-1.3-5.6-2.4l-1.7-1.9c-1.8-2-5.3-3.6-8.1-3.6H10.2a6 6 0 0 0-6.1 6.1v37.7c0 3.3 2.3 6.1 5.7 6.1l51-.1c3.4 0 5.7-2.3 5.7-5.7V23.5c0-1.6-.7-2.8-1.8-4zm-3.8 38.1l-51 .1c-2.1 0-3.4-1.8-3.4-3.9V16.1c0-2.1 1.7-3.8 3.9-3.8h12.5c2.1 0 5 1.3 6.4 2.9l1.7 1.9c1.4 1.5 5.2 3.2 7.3 3.2H61c1 0 1.6.3 2.3 1 .7.7 1.1 1.4 1.1 2.4v20.4L54 44c-.6 0-1.1.5-1.1 1.1 0 .6.5 1.1 1.1 1.1h10.2v2.2H48.3c-.6 0-1.1.5-1.1 1.1 0 .6.5 1.1 1.1 1.1h15.9V54c.1 2.3-1.2 3.6-3.3 3.6z"/>
</svg>