<svg><path xmlns="http://www.w3.org/2000/svg" d="M34.9 6.2a29.4 29.4 0 0 0-9.1 57.4c1.5.3 2-.6 2-1.4v-5c-8.2 1.8-9.9-3.9-9.9-3.9-1.3-3.4-3.3-4.3-3.3-4.3-2.7-1.8.2-1.8.2-1.8 3 .2 4.5 3 4.5 3 2.6 4.5 6.9 3.2 8.6 2.4.3-1.9 1-3.2 1.9-3.9-6.5-.7-13.4-3.2-13.4-14.5 0-3.2 1.1-5.8 3-7.9-.3-.7-1.3-3.7.3-7.8 0 0 2.5-.8 8.1 3a26.4 26.4 0 0 1 14.8 0c5.6-3.8 8.1-3 8.1-3 1.6 4 .6 7 .3 7.8 1.9 2.1 3 4.7 3 7.9 0 11.3-6.9 13.8-13.4 14.5 1.1.9 2 2.7 2 5.4v8.1c0 .8.5 1.7 2 1.4a29.3 29.3 0 0 0 20-27.9A29.7 29.7 0 0 0 34.9 6.2z" fill-rule="evenodd" clip-rule="evenodd"/></svg>