<svg version="1.1" xmlns="http://www.w3.org/2000/svg" xmlns:xlink="http://www.w3.org/1999/xlink" x="0px" y="0px"
	 viewBox="0 0 70 70" style="enable-background:new 0 0 70 70;" xml:space="preserve">
<g>
	<path d="M49.8,10.5c0.2,1.2,0.4,2.6,0.5,4c6,4.6,9.8,11.9,9.8,20c0,12.6-9.3,23.1-21.4,25c0,0.2-0.1,0.4-0.1,0.7
		c-0.2,1-0.5,1.8-0.8,2.5C52,61.2,63.1,49.1,63.1,34.5C63.1,24.4,57.8,15.5,49.8,10.5z"/>
	<path d="M35.3,48.3c2.5-0.4,5-1,7.4-1.9c2.3-0.9,4.6-2.1,6.1-4.1c2-2.7,3.3-12.6,1.8-9.6c-2.9,5.8-10,9.3-15.4,11.2l-0.5,0.2
		c-0.2-2.2-0.4-4.4-0.7-6.6c7.9-2.1,14.6-7.9,14.6-20.8c0-17.4-11.1-18-17.7-8.6c0,0,0,0,0,0c-0.6,0.8-1,1.8-1.4,2.9
		c-2.2,6.2-1.4,16.2-0.3,23.9c-1.9,0.1-3.9-0.1-5.7-0.6c-2.6-0.8-5.1-2.3-6.7-4.6c0,0-1.8,8.8,8.9,8.8c1.3,0,2.6-0.1,4-0.2
		c0.5,3.2,1.1,5.7,1.3,6.9l0,0c-3.9,1.4-6.4,2.7-6.4,2.7c-3.4,2.4-7.3,6.9-3.7,13.4c5.6,10.4,13.6,3.2,13.6,3.2l0,0
		C35.8,63.5,39.8,58.4,35.3,48.3z M36.1,10.9c0.7-1.4,1.5-2.8,2.7-3.7c1.2-0.9,3-1.3,4.4-0.6c1.5,0.8,2.2,2.5,2.6,4.2
		c1.5,6.3,0,13.4-4.4,18.3c-2,2.3-4.7,4-7.6,5c0-0.4-0.1-0.7-0.1-1.1C33,25.4,32.9,17.6,36.1,10.9z M33.8,59.3
		c-0.2,0.7-0.5,1.4-0.9,2c-0.8,1.4-2.2,2.7-3.8,2.4c-0.5-0.1-1-0.4-1.4-0.8c-1.3-1.2-2.1-2.9-2.5-4.6c-0.5-1.7-0.7-3.6,0.1-5.2
		c0.7-1.7,2.3-2.8,4-3.4c0.6-0.2,1.2-0.4,1.8-0.5l1.3-0.2C33.5,52.3,34.7,57.3,33.8,59.3z"/>
	<path d="M9.5,34.5c0-11.7,8.1-21.6,18.9-24.5c0.4-1.1,0.9-2,1.5-2.8C30,7,30.2,6.7,30.4,6.5C16.9,8.6,6.5,20.4,6.5,34.5
		c0,9.5,4.7,17.9,11.8,23c-0.1-1.2-0.1-2.5,0.3-3.6C13,49.2,9.5,42.3,9.5,34.5z"/>
</g>
</svg>
