<svg xmlns="http://www.w3.org/2000/svg" viewBox="0 0 56.42 56.42"><g id="Layer_2" data-name="Layer 2"><g id="Layer_1-2" data-name="Layer 1"><g id="Trtl97.tif"><path d="M56.42,4.85V51.57a.66.66,0,0,0-.09.19,5.68,5.68,0,0,1-5.73,4.66H5.81a6.5,6.5,0,0,1-1.52-.17A5.69,5.69,0,0,1,0,50.55V5.87c0-.16,0-.33,0-.49A5.63,5.63,0,0,1,1.93,1.43,6.67,6.67,0,0,1,4.85,0H51.57a2.44,2.44,0,0,0,.24.1,5.67,5.67,0,0,1,3.32,2A7,7,0,0,1,56.42,4.85ZM47.93,47.93c0-.17,0-.28,0-.38,0-5.22,0-10.43,0-15.65a9.53,9.53,0,0,0-4.32-8.12,8.53,8.53,0,0,0-10.09-.24,27.63,27.63,0,0,0-2.48,2.13V22.61H22.62V47.92H31V33.58c0-.37,0-.74,0-1.1A4.26,4.26,0,0,1,36.38,29a4.33,4.33,0,0,1,3.11,4.37v14.6Zm-31,0V22.62H8.51V47.93Zm.87-35.23a5.07,5.07,0,1,0-5.09,5.06A5.08,5.08,0,0,0,17.76,12.7Z"/></g></g></g></svg>